<svg width="25" height="28" viewBox="0 0 25 28" fill="none" xmlns="http://www.w3.org/2000/svg">
<path fill-rule="evenodd" clip-rule="evenodd" d="M7.52584 3.98874L7.5625 3.81972C7.6325 3.50562 7.74717 3.04362 7.98384 2.58867C8.22517 2.12527 8.59917 1.65552 9.18584 1.34635C9.7705 1.03859 10.5032 0.923797 11.4092 1.05056C12.4092 1.19142 14.4178 1.54073 16.1925 2.4943C17.9772 3.4535 19.6492 5.10358 19.6492 7.85161C19.6492 9.2714 19.1292 10.7947 18.6252 11.7877C18.3832 12.2652 18.0958 12.7216 17.8078 12.9674C17.7418 13.0237 17.6478 13.0941 17.5312 13.1434C17.2112 14.2544 16.5741 15.2339 15.7071 15.948C14.8402 16.662 13.7856 17.0757 12.6876 17.1326C11.5896 17.1895 10.5018 16.8867 9.57285 16.2657C8.64392 15.6447 7.91922 14.7358 7.49784 13.6632L7.48184 13.666L7.24517 13.3625L7.75984 12.9145L7.24517 13.3625L7.2445 13.361L7.24317 13.3596L7.23984 13.3547L7.2285 13.3406C7.17145 13.2656 7.11654 13.1888 7.06384 13.1103C6.91988 12.8994 6.78421 12.6823 6.65717 12.4596C6.34384 11.9117 5.96584 11.1314 5.72384 10.2207C5.4825 9.31013 5.37184 8.24248 5.62517 7.14101C5.87184 6.06913 6.45384 5.01414 7.50784 4.07184L7.52584 3.98874V3.98874ZM8.64584 12.8892C8.93498 13.7676 9.49021 14.5207 10.2256 15.032C10.9609 15.5433 11.8353 15.7842 12.7134 15.7174C13.5914 15.6506 14.4241 15.2798 15.0825 14.6624C15.7409 14.0451 16.1882 13.2156 16.3552 12.3025L16.4305 12.3293C16.4278 12.2895 16.4265 12.2495 16.4265 12.2096C16.4265 11.044 16.2732 10.2306 16.1305 9.72354C16.1026 9.62484 16.0717 9.52713 16.0378 9.43056L16.0105 9.43197H15.9838C15.4853 9.44334 14.987 9.40324 14.4958 9.31225C13.3512 9.10801 11.8012 8.59813 9.97584 7.41708C9.93584 7.51145 9.89584 7.6178 9.85584 7.73611C9.72517 8.12698 9.61784 8.59108 9.52517 9.08125C9.44317 9.51296 9.37584 9.94749 9.31184 10.3546L9.28717 10.5151C9.2185 10.9518 9.14984 11.3807 9.06984 11.6912C8.92984 12.2307 8.78717 12.6138 8.64584 12.8885V12.8892ZM7.7125 11.5771C7.46117 11.1152 7.1865 10.5137 7.0085 9.84115C6.80917 9.0904 6.73584 8.27769 6.92117 7.47413C7.10117 6.6924 7.5365 5.87052 8.43184 5.09161C8.59317 4.97611 8.6665 4.82118 8.6865 4.77963V4.77892C8.72151 4.70278 8.74964 4.62331 8.7705 4.54158C8.79184 4.4613 8.81517 4.35143 8.83717 4.25284L8.8605 4.14227C8.92384 3.85845 9.00584 3.54928 9.1525 3.26687C9.29517 2.99362 9.4905 2.7598 9.78117 2.60698C10.0732 2.45275 10.5252 2.34711 11.2332 2.44711C12.2018 2.58304 14.0238 2.90911 15.5878 3.75C17.1412 4.58455 18.3158 5.84799 18.3158 7.85161C18.3158 8.77419 18.0225 9.82354 17.6692 10.651C17.6025 10.1116 17.5065 9.67072 17.4078 9.3214C17.3391 9.07174 17.2533 8.82767 17.1512 8.59108C17.1127 8.50341 17.0704 8.41763 17.0245 8.33403L17.0132 8.31501L17.0092 8.30797L17.0072 8.30445L17.0058 8.30234L16.4458 8.68264L17.0058 8.30234L16.7592 7.89809L16.3178 7.99176L16.3085 7.99387L16.2438 8.00303C16.1446 8.0147 16.045 8.02175 15.9452 8.02415C15.5341 8.03255 15.1233 7.99858 14.7185 7.92274C13.6432 7.73118 12.0632 7.20932 10.1438 5.85926L9.67717 5.53037L9.29117 5.95997C8.97317 6.3135 8.75717 6.79592 8.59917 7.26567C8.43784 7.74808 8.31584 8.28684 8.21784 8.80377C8.13117 9.26154 8.05917 9.72142 7.9965 10.1278L7.97117 10.2855C7.89984 10.744 7.84184 11.094 7.78317 11.3208C7.75917 11.4138 7.73584 11.4997 7.7125 11.5771V11.5771ZM16.9665 11.8743L16.9692 11.8729L16.9665 11.8743ZM16.9692 11.8729L16.9665 11.8743L16.9685 11.8729H16.9692Z" fill="#BB5463" stroke="#BB5463" stroke-width="0.2"/>
<path fill-rule="evenodd" clip-rule="evenodd" d="M8.36918 17.7423C8.22785 17.4451 8.05385 17.0782 7.75985 17.1493C4.15718 18.0156 0.426514 20.5164 0.426514 23.1757V26.9998H24.4265V23.1757C24.4265 21.0812 22.1118 19.0846 19.3685 17.9078L19.3652 17.9008C19.3621 17.8944 19.359 17.8881 19.3558 17.8818L19.3338 17.893C18.6052 17.5832 17.8465 17.3296 17.0932 17.1493C16.7578 17.0683 16.4112 17.5557 16.2598 17.8606H8.42651C8.40785 17.824 8.38918 17.7832 8.36918 17.7423V17.7423ZM17.3618 18.6719C17.6532 18.7572 17.9432 18.8529 18.2292 18.9586C18.2372 19.1994 18.2198 19.484 18.1825 19.7741C18.1445 20.0745 18.0839 20.3713 18.0012 20.6615H17.0932C16.9694 20.6616 16.8481 20.698 16.7428 20.7668C16.6376 20.8356 16.5525 20.934 16.4972 21.0509L15.8305 22.4595C15.7842 22.5572 15.76 22.665 15.7598 22.7743V24.1828C15.7598 24.3696 15.8301 24.5487 15.9551 24.6808C16.0801 24.8129 16.2497 24.887 16.4265 24.887H17.7598V23.4785H17.0932V22.9405L17.5052 22.07H19.3478L19.7598 22.9405V23.4785H19.0932V24.887H20.4265C20.6033 24.887 20.7729 24.8129 20.8979 24.6808C21.0229 24.5487 21.0932 24.3696 21.0932 24.1828V22.7743C21.0931 22.665 21.0689 22.5572 21.0225 22.4595L20.3558 21.0509C20.3005 20.934 20.2155 20.8356 20.1102 20.7668C20.0049 20.698 19.8836 20.6616 19.7598 20.6615H19.3825C19.4649 20.2888 19.5202 19.9099 19.5478 19.5283C20.1978 19.853 20.8018 20.2255 21.3252 20.6284C22.6065 21.6158 23.0932 22.5397 23.0932 23.1757V25.5913H1.75985V23.1757C1.75985 22.5397 2.24651 21.6158 3.52785 20.6284C4.17185 20.1319 4.94051 19.6826 5.76451 19.3107C5.77318 19.529 5.79318 19.7502 5.82051 19.9643C5.86651 20.3164 5.93518 20.6671 6.01851 20.9685L6.02385 20.9883C5.62529 21.2546 5.32866 21.6612 5.18634 22.1362C5.04402 22.6112 5.06517 23.124 5.24606 23.5841C5.42695 24.0442 5.75594 24.422 6.17492 24.6507C6.5939 24.8794 7.07591 24.9444 7.53583 24.8341C7.99574 24.7238 8.40397 24.4454 8.68841 24.048C8.97285 23.6506 9.1152 23.1598 9.09032 22.6623C9.06543 22.1648 8.87492 21.6925 8.55243 21.329C8.22993 20.9655 7.7962 20.734 7.32785 20.6756C7.24266 20.3809 7.18023 20.0794 7.14118 19.7741C7.10406 19.5011 7.08868 19.2252 7.09518 18.9494C7.09718 18.8903 7.10118 18.8382 7.10518 18.7917C7.18518 18.7656 7.26518 18.7403 7.34518 18.7163L7.62185 19.2699H17.0645L17.3618 18.6727V18.6719ZM7.09318 23.4898C7.45185 23.4898 7.75985 23.1799 7.75985 22.775C7.75985 22.3707 7.45185 22.0601 7.09318 22.0601C6.73451 22.0601 6.42651 22.37 6.42651 22.775C6.42651 23.1792 6.73451 23.4898 7.09318 23.4898Z" fill="#BB5463" stroke="#BB5463" stroke-width="0.2"/>
</svg>