<svg width="28" height="28" viewBox="0 0 28 28" fill="none" xmlns="http://www.w3.org/2000/svg">
<path d="M14 0C6.3 0 0 6.3 0 14C0 21.7 6.3 28 14 28C21.7 28 28 21.7 28 14C28 6.3 21.7 0 14 0ZM6.9 16.1C6.6 16.1 6.4 16 6.2 15.8C5.8 15.4 5.8 14.8 6.2 14.4L7.6 13L6.2 11.6C5.8 11.2 5.8 10.6 6.2 10.2C6.6 9.8 7.2 9.8 7.6 10.2L9 11.6L10.4 10.2C10.8 9.8 11.4 9.8 11.8 10.2C12.2 10.6 12.2 11.2 11.8 11.6L10.4 13L11.8 14.4C12.2 14.8 12.2 15.4 11.8 15.8C11.6 16 11.3 16.1 11.1 16.1C10.9 16.1 10.6 16 10.4 15.8L9 14.4L7.6 15.8C7.4 16 7.1 16.1 6.9 16.1ZM19 18.2C18.9 18.7 18.5 19 18 19C17.9 19 17.8 19 17.8 19C15.3 18.4 12.7 18.4 10.3 19C9.8 19.1 9.2 18.8 9.1 18.3C9 17.8 9.3 17.2 9.8 17.1C12.6 16.4 15.5 16.4 18.3 17.1C18.8 17.2 19.1 17.7 19 18.2ZM21.8 14.4C22.2 14.8 22.2 15.4 21.8 15.8C21.6 16 21.3 16.1 21.1 16.1C20.9 16.1 20.6 16 20.4 15.8L19 14.4L17.6 15.8C17.4 16 17.1 16.1 16.9 16.1C16.7 16.1 16.4 16 16.2 15.8C15.8 15.4 15.8 14.8 16.2 14.4L17.6 13L16.2 11.6C15.8 11.2 15.8 10.6 16.2 10.2C16.6 9.8 17.2 9.8 17.6 10.2L19 11.6L20.4 10.2C20.8 9.8 21.4 9.8 21.8 10.2C22.2 10.6 22.2 11.2 21.8 11.6L20.4 13L21.8 14.4Z" fill="#003842"/>
</svg>