<svg width="21" height="22" viewBox="0 0 21 22" fill="none" xmlns="http://www.w3.org/2000/svg">
<path d="M1.93279 9.74156L9.71824 1.9561C10.9591 0.718389 12.6402 0.0233154 14.3928 0.0233154C16.1454 0.0233154 17.8265 0.718389 19.0674 1.9561C21.6442 4.5329 21.6442 8.71745 19.0674 11.3053L11.2819 19.0907C8.69413 21.6675 4.50958 21.6675 1.93279 19.0907C0.695074 17.8498 0 16.1688 0 14.4161C0 12.6635 0.695074 10.9824 1.93279 9.74156ZM3.49648 11.3053C2.94726 11.8495 2.55196 12.5296 2.3508 13.2762C2.14964 14.0228 2.14979 14.8093 2.35124 15.5559L8.94741 8.97072L13.6165 13.6398L17.5037 9.74156C17.9145 9.3343 18.2406 8.84972 18.4631 8.31579C18.6856 7.78185 18.8002 7.20913 18.8002 6.63068C18.8002 6.05223 18.6856 5.47951 18.4631 4.94557C18.2406 4.41163 17.9145 3.92705 17.5037 3.5198C17.0964 3.10901 16.6119 2.78295 16.0779 2.56043C15.544 2.33791 14.9713 2.22335 14.3928 2.22335C13.8144 2.22335 13.2417 2.33791 12.7077 2.56043C12.1738 2.78295 11.6892 3.10901 11.2819 3.5198L3.49648 11.3053Z" fill="white"/>
</svg>