<svg width="25" height="32" viewBox="0 0 25 32" fill="none" xmlns="http://www.w3.org/2000/svg">
<path fill-rule="evenodd" clip-rule="evenodd" d="M16.7122 4.74976C16.7122 5.74432 16.2606 6.69814 15.4569 7.40141C14.6532 8.10467 13.5631 8.49976 12.4265 8.49976C11.2898 8.49976 10.1997 8.10467 9.396 7.40141C8.59228 6.69814 8.14075 5.74432 8.14075 4.74976C8.14075 3.75519 8.59228 2.80137 9.396 2.09811C10.1997 1.39484 11.2898 0.999756 12.4265 0.999756C13.5631 0.999756 14.6532 1.39484 15.4569 2.09811C16.2606 2.80137 16.7122 3.75519 16.7122 4.74976V4.74976ZM14.9979 4.74976C14.9979 5.34649 14.727 5.91879 14.2447 6.34075C13.7625 6.7627 13.1084 6.99976 12.4265 6.99976C11.7445 6.99976 11.0904 6.7627 10.6082 6.34075C10.1259 5.91879 9.85503 5.34649 9.85503 4.74976C9.85503 4.15302 10.1259 3.58072 10.6082 3.15877C11.0904 2.73681 11.7445 2.49976 12.4265 2.49976C13.1084 2.49976 13.7625 2.73681 14.2447 3.15877C14.727 3.58072 14.9979 4.15302 14.9979 4.74976V4.74976Z" fill="#BB5463" stroke="#BB5463" stroke-width="0.2"/>
<path d="M6.42651 28.7498V23.4998H8.1408V28.7498C8.1408 28.9487 8.2311 29.1394 8.39185 29.2801C8.5526 29.4207 8.77061 29.4998 8.99794 29.4998H9.07251C9.28635 29.4996 9.49238 29.4295 9.65018 29.3032C9.80797 29.1769 9.90613 29.0036 9.92537 28.8173L10.4782 23.4998H12.1994L11.6337 28.9538C11.6194 29.0881 11.5916 29.2212 11.5505 29.3513C11.4002 29.8254 11.0764 30.2434 10.6286 30.5411C10.1809 30.8388 9.63401 31 9.07166 30.9998H8.99794C8.31596 30.9998 7.6619 30.7627 7.17967 30.3407C6.69743 29.9188 6.42651 29.3465 6.42651 28.7498Z" fill="#BB5463" stroke="#BB5463" stroke-width="0.2"/>
<path d="M14.9268 28.8173L14.374 23.4998H12.6528L13.2194 28.9538C13.2337 29.0881 13.2615 29.2212 13.3025 29.3513C13.4528 29.8253 13.7765 30.2431 14.2241 30.5409C14.6716 30.8386 15.2183 30.9998 15.7805 30.9998H15.8551C16.5371 30.9998 17.1912 30.7627 17.6734 30.3407C18.1556 29.9188 18.4265 29.3465 18.4265 28.7498V23.4998H16.7123V28.7498C16.7123 28.9487 16.622 29.1394 16.4612 29.2801C16.3005 29.4207 16.0824 29.4998 15.8551 29.4998H15.7805C15.5666 29.4998 15.3603 29.4297 15.2023 29.3035C15.0444 29.1772 14.9461 29.0037 14.9268 28.8173V28.8173Z" fill="#BB5463" stroke="#BB5463" stroke-width="0.2"/>
<path fill-rule="evenodd" clip-rule="evenodd" d="M1.28366 9.24976C1.05633 9.24976 0.838311 9.32877 0.677565 9.46943C0.51682 9.61008 0.426514 9.80084 0.426514 9.99976V21.2498C0.426514 21.4487 0.51682 21.6394 0.677565 21.7801C0.838311 21.9207 1.05633 21.9998 1.28366 21.9998H23.5694C23.7967 21.9998 24.0147 21.9207 24.1755 21.7801C24.3362 21.6394 24.4265 21.4487 24.4265 21.2498V9.99976C24.4265 9.80084 24.3362 9.61008 24.1755 9.46943C24.0147 9.32877 23.7967 9.24976 23.5694 9.24976H1.28366ZM2.1408 10.7498V20.4998H8.56937C8.56937 20.0813 8.79223 19.7175 9.02194 19.4498C9.27801 19.1624 9.58164 18.9102 9.9228 18.7013C10.4222 18.3876 10.979 18.1507 11.5694 18.0008V16.3748H10.8837C10.3668 16.3748 9.64337 16.6478 8.94909 17.016C8.56615 17.2201 8.19828 17.445 7.84766 17.6895L7.8348 17.6993L7.83223 17.7008L7.28366 17.1248L6.73509 16.5488L6.73594 16.5473L6.73851 16.5458L6.74451 16.5413L6.7668 16.5263C6.88241 16.4447 6.99987 16.3652 7.11909 16.2878C7.35051 16.1378 7.6788 15.9353 8.06108 15.7328C8.78108 15.3518 9.85766 14.8748 10.8837 14.8748H11.5694V13.3748H11.1408C10.6522 13.3748 10.0179 13.5248 9.45223 13.7048C9.14099 13.8039 8.83522 13.9158 8.53594 14.04L8.52566 14.0453H8.52394L8.1408 13.3748L7.75766 12.7035L7.76023 12.7028L7.76623 12.7005L7.78423 12.6923C7.88212 12.6505 7.981 12.6104 8.0808 12.5723C8.27537 12.4973 8.5488 12.396 8.86594 12.2948C9.47709 12.0998 10.3428 11.8748 11.1408 11.8748H11.5694V10.7498H2.1408ZM13.2837 16.3748H14.2265C14.8685 16.3748 15.5285 16.6493 16.0805 16.989C16.3838 17.1761 16.6667 17.3872 16.9257 17.6198L16.9325 17.6273L17.5694 17.1248L18.2062 16.6223L18.2045 16.6215L18.2028 16.6193L18.1968 16.6133L18.1779 16.596C18.083 16.5084 17.9849 16.4233 17.8839 16.341C17.6264 16.1315 17.3529 15.9376 17.0654 15.7605C16.3968 15.3503 15.3854 14.8748 14.2265 14.8748H13.2837V13.3748H13.9265C14.5214 13.3748 15.1008 13.5255 15.5491 13.6913C15.7858 13.7786 16.015 13.8809 16.2348 13.9973L16.2374 13.9988L16.7122 13.3748L17.1871 12.7508L17.1862 12.75L17.1837 12.7485L17.1777 12.7448L17.1605 12.735C17.0771 12.6887 16.9922 12.6444 16.9059 12.6023C16.6817 12.4932 16.4508 12.3951 16.2142 12.3083C15.6459 12.0983 14.8317 11.8748 13.9265 11.8748H13.2837V10.7498H22.7122V20.4998H16.2837C16.2837 20.0783 16.0539 19.7085 15.8242 19.44C15.5649 19.1474 15.2579 18.8896 14.9131 18.675C14.4221 18.3591 13.8702 18.1231 13.2837 17.9783V16.3748ZM14.5634 20.4998C14.5344 20.4429 14.4972 20.3894 14.4528 20.3408C14.2958 20.1675 14.111 20.0149 13.9042 19.8878C13.4105 19.5728 12.8499 19.3838 12.4539 19.3748C11.9877 19.4093 11.4022 19.6185 10.9222 19.92C10.6822 20.07 10.5022 20.223 10.3908 20.3528C10.3497 20.3977 10.3154 20.4471 10.2888 20.4998H14.5634V20.4998Z" fill="#BB5463" stroke="#BB5463" stroke-width="0.2"/>
</svg>