<svg width="25" height="26" viewBox="0 0 25 26" fill="none" xmlns="http://www.w3.org/2000/svg">
<path d="M24.1458 6.28071L19.1458 1.28071C18.9572 1.09855 18.7046 0.997759 18.4424 1.00004C18.1802 1.00232 17.9294 1.10749 17.744 1.29289C17.5586 1.4783 17.4534 1.72911 17.4511 1.99131C17.4488 2.25351 17.5496 2.50611 17.7318 2.69471L19.5248 4.48771L18.0388 5.97071C17.0784 5.26553 15.8977 4.92649 14.7095 5.01468C13.5213 5.10286 12.4036 5.61248 11.5578 6.45171L5.4888 12.5237C4.83688 13.1721 4.32002 13.9434 3.96814 14.7929C3.61626 15.6424 3.43635 16.5532 3.4388 17.4727V20.5727L0.731802 23.2807C0.636292 23.373 0.560109 23.4833 0.5077 23.6053C0.455291 23.7273 0.427705 23.8585 0.426551 23.9913C0.425398 24.1241 0.450699 24.2558 0.50098 24.3787C0.551261 24.5016 0.625514 24.6132 0.719407 24.7071C0.8133 24.801 0.924951 24.8752 1.04785 24.9255C1.17074 24.9758 1.30242 25.0011 1.4352 25C1.56798 24.9988 1.6992 24.9712 1.82121 24.9188C1.94321 24.8664 2.05355 24.7902 2.1458 24.6947L4.8528 21.9877H7.9528C8.87228 21.9902 9.78312 21.8102 10.6326 21.4584C11.4821 21.1065 12.2534 20.5896 12.9018 19.9377L18.9738 13.8657C19.8137 13.021 20.3239 11.9038 20.4123 10.7158C20.5007 9.52786 20.1614 8.34746 19.4558 7.38771L20.9388 5.90171L22.7318 7.69471C22.9204 7.87687 23.173 7.97766 23.4352 7.97538C23.6974 7.97311 23.9482 7.86794 24.1336 7.68253C24.319 7.49712 24.4242 7.24631 24.4265 6.98411C24.4288 6.72191 24.328 6.46931 24.1458 6.28071V6.28071ZM17.5608 12.4517L11.4888 18.5237C11.0256 18.9893 10.4747 19.3585 9.86793 19.6097C9.26115 19.861 8.61056 19.9895 7.9538 19.9877H5.4388V17.4727C5.43911 17.1451 5.47092 16.8182 5.5338 16.4967L6.7338 17.6967C6.82605 17.7922 6.93639 17.8684 7.0584 17.9208C7.1804 17.9732 7.31162 18.0008 7.4444 18.002C7.57718 18.0031 7.70886 17.9778 7.83176 17.9275C7.95465 17.8772 8.0663 17.803 8.1602 17.7091C8.25409 17.6152 8.32834 17.5036 8.37862 17.3807C8.4289 17.2578 8.45421 17.1261 8.45305 16.9933C8.4519 16.8605 8.42431 16.7293 8.3719 16.6073C8.31949 16.4853 8.24331 16.375 8.1478 16.2827L6.4068 14.5417C6.55753 14.3289 6.72471 14.1283 6.9068 13.9417L7.9388 12.9017L9.7318 14.6947C9.9204 14.8769 10.173 14.9777 10.4352 14.9754C10.6974 14.9731 10.9482 14.8679 11.1336 14.6825C11.319 14.4971 11.4242 14.2463 11.4265 13.9841C11.4288 13.7219 11.328 13.4693 11.1458 13.2807L9.3528 11.4877L10.9388 9.90171L12.7318 11.6947C12.9204 11.8769 13.173 11.9777 13.4352 11.9754C13.6974 11.9731 13.9482 11.8679 14.1336 11.6825C14.319 11.4971 14.4242 11.2463 14.4265 10.9841C14.4288 10.7219 14.328 10.4693 14.1458 10.2807L12.3528 8.48771L12.9748 7.86571C13.5464 7.32053 14.3059 7.01638 15.0958 7.01638C15.8857 7.01638 16.6452 7.32053 17.2168 7.86571L17.5608 8.20971C18.1232 8.77229 18.4392 9.53522 18.4392 10.3307C18.4392 11.1262 18.1232 11.8891 17.5608 12.4517Z" fill="white" stroke="white" stroke-width="0.2"/>
</svg>