<svg width="89" height="77" viewBox="0 0 89 77" fill="none" xmlns="http://www.w3.org/2000/svg">
<g clip-path="url(#clip0_96_635)">
<path d="M44.4988 76.6605C68.6847 76.6605 88.2912 61.9805 88.2912 43.8719C88.2912 25.7633 68.6847 11.0833 44.4988 11.0833C20.3128 11.0833 0.706299 25.7633 0.706299 43.8719C0.706299 61.9805 20.3128 76.6605 44.4988 76.6605Z" fill="white"/>
<path d="M38.1821 64.6922L38.6021 64.8972C41.384 66.2565 44.5486 64.0291 44.3929 60.8206" stroke="#1B1B1B" stroke-width="2" stroke-linecap="round"/>
<path d="M50.7766 64.6922L50.3565 64.8972C47.5745 66.2565 44.4103 64.0291 44.5659 60.8206" stroke="#1B1B1B" stroke-width="2" stroke-linecap="round"/>
<path d="M46.069 58.432C46.069 56.8729 45.3257 55.6091 44.4087 55.6091C43.4917 55.6091 42.7483 56.8729 42.7483 58.432C42.7483 59.991 43.4917 61.2548 44.4087 61.2548C45.3257 61.2548 46.069 59.991 46.069 58.432Z" fill="#D67B73"/>
<path d="M44.4086 59.5177C46.4718 59.5177 48.1444 58.6427 48.1444 57.5634C48.1444 56.4841 46.4718 55.6091 44.4086 55.6091C42.3453 55.6091 40.6727 56.4841 40.6727 57.5634C40.6727 58.6427 42.3453 59.5177 44.4086 59.5177Z" fill="#D67B73"/>
<path d="M1.63645 5.42274C1.43365 2.23779 4.47407 -0.0801226 7.30974 1.0976L32.0704 11.3813C35.1086 12.6431 35.6253 16.9135 32.9834 18.9276L9.99358 36.4542C7.35167 38.4683 3.62456 36.6454 3.40727 33.233L1.63645 5.42274Z" fill="white"/>
<path d="M4.54411 7.93001C4.43713 6.04156 6.52898 4.92306 7.92917 6.12003L19.9577 16.4028C21.1173 17.3941 20.9225 19.3049 19.589 20.0179L8.47946 25.9581C7.14601 26.671 5.55172 25.717 5.4631 24.153L4.54411 7.93001Z" fill="#F0D3C1"/>
<path d="M87.4705 5.62824C87.6735 2.44329 84.6329 0.125385 81.7974 1.30311L57.0367 11.5868C53.9986 12.8486 53.4818 17.119 56.1239 19.1331L79.1134 36.6597C81.7555 38.6738 85.4826 36.8509 85.6997 33.4385L87.4705 5.62824Z" fill="#F1A55F"/>
<path d="M84.5632 8.13551C84.6698 6.24706 82.5782 5.12856 81.1781 6.32554L69.1495 16.6083C67.9897 17.5996 68.1848 19.5104 69.5181 20.2234L80.6276 26.1636C81.9609 26.8765 83.5553 25.9225 83.6441 24.3585L84.5632 8.13551Z" fill="#F0D3C1"/>
<path d="M67.7788 59.3123C79.0121 59.3123 88.1185 51.2432 88.1185 41.2895C88.1185 31.3357 79.0121 23.2666 67.7788 23.2666C56.5456 23.2666 47.4392 31.3357 47.4392 41.2895C47.4392 51.2432 56.5456 59.3123 67.7788 59.3123Z" fill="#F1A55F"/>
<path d="M51.3826 33.2551C60.6673 33.2551 68.1939 28.297 68.1939 22.1809C68.1939 16.0647 60.6673 11.1066 51.3826 11.1066C42.098 11.1066 34.5713 16.0647 34.5713 22.1809C34.5713 28.297 42.098 33.2551 51.3826 33.2551Z" fill="#F1A55F"/>
<path d="M67.1643 51.4066C72.2524 49.122 75.2288 44.4704 73.8122 41.0167C72.3956 37.5631 67.1224 36.6154 62.0342 38.9C56.9461 41.1845 53.9697 45.8362 55.3863 49.2898C56.8029 52.7434 62.0761 53.6911 67.1643 51.4066Z" fill="#8CA275"/>
<path d="M66.6976 51.2282C70.2271 49.6433 71.9909 45.6834 70.6372 42.3837C69.2835 39.084 65.3249 37.694 61.7953 39.279C58.2658 40.864 56.5019 44.8238 57.8557 48.1235C59.2094 51.4232 63.168 52.8132 66.6976 51.2282Z" fill="#1B1B1B"/>
<path d="M68.2765 43.015C68.8496 43.015 69.3142 42.5289 69.3142 41.9293C69.3142 41.3297 68.8496 40.8436 68.2765 40.8436C67.7034 40.8436 67.2388 41.3297 67.2388 41.9293C67.2388 42.5289 67.7034 43.015 68.2765 43.015Z" fill="white"/>
<path d="M21.6592 51.4626C16.5711 49.1781 13.5947 44.5264 15.0113 41.0728C16.4279 37.6192 21.7011 36.6714 26.7893 38.956C31.8774 41.2405 34.8538 45.8922 33.4372 49.3458C32.0206 52.7994 26.7474 53.7472 21.6592 51.4626Z" fill="#8BA275"/>
<path d="M22.1263 51.2842C18.5968 49.6992 16.8329 45.7394 18.1866 42.4397C19.5403 39.14 23.499 37.75 27.0285 39.335C30.5581 40.9199 32.3219 44.8798 30.9682 48.1795C29.6145 51.4792 25.6558 52.8692 22.1263 51.2842Z" fill="#1B1B1B"/>
<path d="M27.1821 43.015C26.609 43.015 26.1444 42.5289 26.1444 41.9293C26.1444 41.3297 26.609 40.8436 27.1821 40.8436C27.7552 40.8436 28.2198 41.3297 28.2198 41.9293C28.2198 42.5289 27.7552 43.015 27.1821 43.015Z" fill="white"/>
<path d="M29.4171 34.932C30.6969 35.6888 32.1917 35.4559 32.7557 34.4119C33.3197 33.3679 32.7393 31.908 31.4595 31.1512C30.1796 30.3944 28.6849 30.6272 28.1209 31.6713C27.5569 32.7153 28.1372 34.1752 29.4171 34.932Z" fill="#F1A55F"/>
<path d="M59.6859 34.932C58.406 35.6888 56.9113 35.4559 56.3473 34.4119C55.7833 33.3679 56.3636 31.908 57.6434 31.1512C58.9233 30.3944 60.418 30.6272 60.982 31.6713C61.546 32.7153 60.9657 34.1752 59.6859 34.932Z" fill="white"/>
</g>
<defs>
<clipPath id="clip0_96_635">
<rect width="88" height="76" fill="white" transform="translate(0.533569 0.683716)"/>
</clipPath>
</defs>
</svg>