<svg width="89" height="77" viewBox="0 0 89 77" fill="none" xmlns="http://www.w3.org/2000/svg">
<g clip-path="url(#clip0_96_685)">
<path d="M45.0262 76.6605C69.2121 76.6605 88.8186 61.9805 88.8186 43.8719C88.8186 25.7633 69.2121 11.0833 45.0262 11.0833C20.8403 11.0833 1.2337 25.7633 1.2337 43.8719C1.2337 61.9805 20.8403 76.6605 45.0262 76.6605Z" fill="#1B1B1B"/>
<path d="M45.1436 76.6837C57.6378 76.6837 67.7663 71.4339 67.7663 64.958C67.7663 58.4821 57.6378 53.2323 45.1436 53.2323C32.6495 53.2323 22.521 58.4821 22.521 64.958C22.521 71.4339 32.6495 76.6837 45.1436 76.6837Z" fill="white"/>
<path d="M54.0682 47.8037C54.0682 35.4515 50.0725 25.438 45.1436 25.438C40.2148 25.438 36.2191 35.4515 36.2191 47.8037C36.2191 60.156 40.2148 70.1694 45.1436 70.1694C50.0725 70.1694 54.0682 60.156 54.0682 47.8037Z" fill="white"/>
<path d="M38.7097 64.6922L39.1297 64.8972C41.9116 66.2565 45.076 64.0291 44.9204 60.8206" stroke="#1B1B1B" stroke-width="2" stroke-linecap="round"/>
<path d="M51.3041 64.6922L50.884 64.8972C48.102 66.2565 44.9378 64.0291 45.0934 60.8206" stroke="#1B1B1B" stroke-width="2" stroke-linecap="round"/>
<path d="M46.5965 58.432C46.5965 56.8729 45.8531 55.6091 44.9361 55.6091C44.0191 55.6091 43.2758 56.8729 43.2758 58.432C43.2758 59.991 44.0191 61.2548 44.9361 61.2548C45.8531 61.2548 46.5965 59.991 46.5965 58.432Z" fill="#FFAA76"/>
<path d="M44.9361 59.5177C46.9994 59.5177 48.672 58.6427 48.672 57.5634C48.672 56.4841 46.9994 55.6091 44.9361 55.6091C42.8729 55.6091 41.2003 56.4841 41.2003 57.5634C41.2003 58.6427 42.8729 59.5177 44.9361 59.5177Z" fill="#FFAA76"/>
<path d="M2.16404 5.42274C1.96124 2.23779 5.00166 -0.0801226 7.83733 1.0976L32.5979 11.3813C35.6362 12.6431 36.1529 16.9135 33.5109 18.9276L10.5212 36.4542C7.87929 38.4683 4.15214 36.6454 3.93486 33.233L2.16404 5.42274Z" fill="#1B1B1B"/>
<path d="M5.07163 7.93001C4.96466 6.04156 7.0565 4.92306 8.45669 6.12003L20.4853 16.4028C21.6449 17.3941 21.45 19.3049 20.1165 20.0179L9.00699 25.9581C7.67354 26.671 6.07924 25.717 5.99066 24.153L5.07163 7.93001Z" fill="#FFAA76"/>
<path d="M87.9984 5.62824C88.201 2.44329 85.1604 0.125385 82.3249 1.30311L57.5641 11.5868C54.526 12.8486 54.0093 17.119 56.6513 19.1331L79.6409 36.6597C82.283 38.6738 86.0101 36.8509 86.2272 33.4385L87.9984 5.62824Z" fill="#1B1B1B"/>
<path d="M85.0906 8.13551C85.1977 6.24706 83.1056 5.12856 81.7055 6.32554L69.6769 16.6083C68.5172 17.5996 68.7123 19.5104 70.0455 20.2234L81.1551 26.1636C82.4888 26.8765 84.0828 25.9225 84.1716 24.3585L85.0906 8.13551Z" fill="#FFAA76"/>
<path d="M67.6922 51.4066C72.7803 49.122 75.7567 44.4704 74.3401 41.0167C72.9235 37.5631 67.6503 36.6154 62.5621 38.9C57.474 41.1845 54.4976 45.8362 55.9142 49.2898C57.3308 52.7434 62.604 53.6911 67.6922 51.4066Z" fill="#FFAF23"/>
<path d="M67.225 51.2282C70.7545 49.6433 72.5184 45.6834 71.1647 42.3837C69.8109 39.084 65.8523 37.694 62.3227 39.279C58.7932 40.864 57.0293 44.8238 58.3831 48.1235C59.7368 51.4232 63.6954 52.8132 67.225 51.2282Z" fill="#1B1B1B"/>
<path d="M68.804 43.015C69.3772 43.015 69.8418 42.5289 69.8418 41.9293C69.8418 41.3297 69.3772 40.8436 68.804 40.8436C68.2309 40.8436 67.7663 41.3297 67.7663 41.9293C67.7663 42.5289 68.2309 43.015 68.804 43.015Z" fill="white"/>
<path d="M22.1868 51.4626C17.0986 49.1781 14.1223 44.5264 15.5389 41.0728C16.9555 37.6192 22.2287 36.6714 27.3168 38.956C32.405 41.2405 35.3814 45.8922 33.9648 49.3458C32.5481 52.7994 27.275 53.7471 22.1868 51.4626Z" fill="#FFAF23"/>
<path d="M22.6539 51.2842C19.1243 49.6992 17.3605 45.7394 18.7142 42.4397C20.0679 39.14 24.0266 37.75 27.5561 39.335C31.0856 40.9199 32.8495 44.8798 31.4958 48.1795C30.1421 51.4792 26.1834 52.8692 22.6539 51.2842Z" fill="#1B1B1B"/>
<path d="M27.7097 43.015C27.1366 43.015 26.672 42.5289 26.672 41.9293C26.672 41.3297 27.1366 40.8436 27.7097 40.8436C28.2828 40.8436 28.7474 41.3297 28.7474 41.9293C28.7474 42.5289 28.2828 43.015 27.7097 43.015Z" fill="white"/>
<path d="M29.8195 36.6691C31.0994 37.4259 32.5941 37.1931 33.1581 36.149C33.7221 35.105 33.1418 33.6451 31.8619 32.8883C30.5821 32.1315 29.0873 32.3644 28.5233 33.4084C27.9593 34.4524 28.5397 35.9123 29.8195 36.6691Z" fill="white"/>
<path d="M60.0884 36.6691C58.8085 37.4259 57.3138 37.1931 56.7498 36.149C56.1858 35.105 56.7661 33.6451 58.046 32.8883C59.3258 32.1315 60.8206 32.3644 61.3846 33.4084C61.9486 34.4524 61.3682 35.9123 60.0884 36.6691Z" fill="white"/>
</g>
<defs>
<clipPath id="clip0_96_685">
<rect width="88" height="76" fill="white" transform="translate(0.936096 0.683716)"/>
</clipPath>
</defs>
</svg>