<svg width="88" height="76" viewBox="0 0 88 76" fill="none" xmlns="http://www.w3.org/2000/svg">
<path d="M44.0901 75.7725C68.276 75.7725 87.8825 61.176 87.8825 43.1702C87.8825 25.1645 68.276 10.568 44.0901 10.568C19.9042 10.568 0.297607 25.1645 0.297607 43.1702C0.297607 61.176 19.9042 75.7725 44.0901 75.7725Z" fill="white"/>
<path d="M37.7736 63.8724L38.1936 64.0762C40.9755 65.4278 44.1399 63.2126 43.9842 60.0227" stroke="#1B1B1B" stroke-width="2" stroke-linecap="round"/>
<path d="M50.368 63.8724L49.9479 64.0762C47.1659 65.4278 44.0017 63.2126 44.1573 60.0227" stroke="#1B1B1B" stroke-width="2" stroke-linecap="round"/>
<path d="M45.6604 57.6477C45.6604 56.0976 44.917 54.8409 44 54.8409C43.083 54.8409 42.3396 56.0976 42.3396 57.6477C42.3396 59.1979 43.083 60.4545 44 60.4545C44.917 60.4545 45.6604 59.1979 45.6604 57.6477Z" fill="#D67B73"/>
<path d="M44 58.7273C46.0633 58.7273 47.7359 57.8573 47.7359 56.7841C47.7359 55.7109 46.0633 54.8409 44 54.8409C41.9368 54.8409 40.2642 55.7109 40.2642 56.7841C40.2642 57.8573 41.9368 58.7273 44 58.7273Z" fill="#D67B73"/>
<path d="M1.22794 4.9399C1.02514 1.77306 4.06556 -0.531681 6.90123 0.639349L31.6619 10.8646C34.7001 12.1193 35.2168 16.3654 32.5749 18.368L9.58506 35.795C6.9432 37.7977 3.21605 35.9852 2.99876 32.5922L1.22794 4.9399Z" fill="white"/>
<path d="M4.13554 7.43253C4.02856 5.55482 6.1204 4.44267 7.5206 5.63285L19.5492 15.8572C20.7088 16.8429 20.5139 18.7428 19.1804 19.4517L8.07089 25.3582C6.73744 26.0671 5.14315 25.1185 5.05457 23.5634L4.13554 7.43253Z" fill="#F0D3C1"/>
<path d="M87.0623 5.14446C87.2649 1.97762 84.2243 -0.327121 81.3888 0.843908L56.628 11.0691C53.5899 12.3238 53.0732 16.5699 55.7152 18.5726L78.7048 35.9996C81.3469 38.0022 85.074 36.1898 85.2911 32.7967L87.0623 5.14446Z" fill="white"/>
<path d="M84.1545 7.63688C84.2616 5.75916 82.1696 4.64701 80.7695 5.83719L68.7408 16.0616C67.5811 17.0472 67.7762 18.9471 69.1094 19.6561L80.219 25.5625C81.5527 26.2715 83.1467 25.3228 83.2355 23.7677L84.1545 7.63688Z" fill="#F0D3C1"/>
<path d="M66.7561 50.6622C71.8442 48.3907 74.8206 43.7654 73.404 40.3314C71.9874 36.8974 66.7142 35.9551 61.626 38.2267C56.5379 40.4982 53.5615 45.1235 54.9781 48.5575C56.3947 51.9915 61.6679 52.9338 66.7561 50.6622Z" fill="#FFAF23" fill-opacity="0.6"/>
<path d="M66.2889 50.4849C69.8184 48.9089 71.5823 44.9716 70.2286 41.6906C68.8748 38.4097 64.9162 37.0275 61.3866 38.6035C57.8571 40.1795 56.0932 44.1168 57.447 47.3978C58.8007 50.6787 62.7593 52.0609 66.2889 50.4849Z" fill="#1B1B1B"/>
<path d="M67.8679 42.3182C68.441 42.3182 68.9057 41.8348 68.9057 41.2386C68.9057 40.6424 68.441 40.1591 67.8679 40.1591C67.2948 40.1591 66.8302 40.6424 66.8302 41.2386C66.8302 41.8348 67.2948 42.3182 67.8679 42.3182Z" fill="white"/>
<path d="M21.2507 50.7179C16.1625 48.4464 13.1862 43.8211 14.6028 40.3871C16.0194 36.9531 21.2926 36.0108 26.3808 38.2824C31.4689 40.5539 34.4453 45.1792 33.0287 48.6132C31.612 52.0472 26.3389 52.9895 21.2507 50.7179Z" fill="#FFAF23" fill-opacity="0.6"/>
<path d="M21.7177 50.5406C18.1882 48.9646 16.4243 45.0273 17.778 41.7463C19.1317 38.4654 23.0904 37.0832 26.6199 38.6592C30.1495 40.2352 31.9133 44.1725 30.5596 47.4535C29.2059 50.7344 25.2473 52.1166 21.7177 50.5406Z" fill="#1B1B1B"/>
<path d="M26.7736 42.3182C26.2005 42.3182 25.7359 41.8348 25.7359 41.2386C25.7359 40.6424 26.2005 40.1591 26.7736 40.1591C27.3467 40.1591 27.8113 40.6424 27.8113 41.2386C27.8113 41.8348 27.3467 42.3182 26.7736 42.3182Z" fill="white"/>
</svg>