<svg width="89" height="77" viewBox="0 0 89 77" fill="none" xmlns="http://www.w3.org/2000/svg">
<g clip-path="url(#clip0_96_777)">
<path d="M44.9012 76.0153C69.0871 76.0153 88.6937 61.4188 88.6937 43.4131C88.6937 25.4073 69.0871 10.8108 44.9012 10.8108C20.7153 10.8108 1.10876 25.4073 1.10876 43.4131C1.10876 61.4188 20.7153 76.0153 44.9012 76.0153Z" fill="#BABABA"/>
<path d="M45.1441 73.22C53.2824 73.22 59.8799 68.1934 59.8799 61.9928C59.8799 55.7921 53.2824 50.7655 45.1441 50.7655C37.0057 50.7655 30.4082 55.7921 30.4082 61.9928C30.4082 68.1934 37.0057 73.22 45.1441 73.22Z" fill="#DADADA"/>
<path d="M38.5848 64.1152L39.0048 64.319C41.7868 65.6706 44.9514 63.4553 44.7954 60.2655" stroke="#1B1B1B" stroke-width="2" stroke-linecap="round"/>
<path d="M51.1795 64.1152L50.7595 64.319C47.9775 65.6706 44.8128 63.4553 44.9685 60.2655" stroke="#1B1B1B" stroke-width="2" stroke-linecap="round"/>
<path d="M46.4715 57.8905C46.4715 56.3403 45.7281 55.0837 44.8111 55.0837C43.8941 55.0837 43.1508 56.3403 43.1508 57.8905C43.1508 59.4407 43.8941 60.6973 44.8111 60.6973C45.7281 60.6973 46.4715 59.4407 46.4715 57.8905Z" fill="#D67B73"/>
<path d="M44.8112 58.97C46.8744 58.97 48.547 58.1001 48.547 57.0269C48.547 55.9537 46.8744 55.0837 44.8112 55.0837C42.7479 55.0837 41.0753 55.9537 41.0753 57.0269C41.0753 58.1001 42.7479 58.97 44.8112 58.97Z" fill="#D67B73"/>
<path d="M2.03904 5.18233C1.83624 2.01549 4.87666 -0.289249 7.71233 0.881781L32.473 11.107C35.5112 12.3617 36.0279 16.6078 33.386 18.6104L10.3962 36.0375C7.75426 38.0401 4.02715 36.2276 3.80986 32.8346L2.03904 5.18233Z" fill="#BABABA"/>
<path d="M4.94657 7.67533C4.8396 5.79761 6.93144 4.68547 8.33164 5.87564L20.3602 16.1C21.5198 17.0857 21.3249 18.9856 19.9915 19.6945L8.88193 25.601C7.54848 26.3099 5.95419 25.3613 5.86556 23.8062L4.94657 7.67533Z" fill="#F0D3C1"/>
<path d="M87.8735 5.38668C88.076 2.21983 85.0359 -0.0849033 82.2 1.08613L57.4396 11.3114C54.4011 12.566 53.8847 16.8122 56.5264 18.8148L79.5164 36.2418C82.158 38.2445 85.8852 36.432 86.1027 33.0389L87.8735 5.38668Z" fill="#BABABA"/>
<path d="M84.9657 7.87968C85.0728 6.00196 82.9812 4.88981 81.5806 6.07999L69.552 16.3044C68.3927 17.29 68.5874 19.1899 69.921 19.8989L81.0306 25.8053C82.3639 26.5143 83.9583 25.5656 84.0467 24.0105L84.9657 7.87968Z" fill="#F0D3C1"/>
<path d="M67.5672 50.9051C72.6554 48.6335 75.6318 44.0082 74.2151 40.5742C72.7985 37.1403 67.5254 36.1979 62.4372 38.4695C57.349 40.7411 54.3726 45.3663 55.7893 48.8003C57.2059 52.2343 62.4791 53.1766 67.5672 50.9051Z" fill="#B2DBD3"/>
<path d="M67.1 50.7277C70.6296 49.1517 72.3934 45.2144 71.0397 41.9334C69.686 38.6525 65.7273 37.2703 62.1978 38.8463C58.6683 40.4223 56.9044 44.3596 58.2581 47.6406C59.6118 50.9215 63.5705 52.3037 67.1 50.7277Z" fill="#1B1B1B"/>
<path d="M68.6791 42.561C69.2522 42.561 69.7168 42.0777 69.7168 41.4815C69.7168 40.8852 69.2522 40.4019 68.6791 40.4019C68.106 40.4019 67.6414 40.8852 67.6414 41.4815C67.6414 42.0777 68.106 42.561 68.6791 42.561Z" fill="white"/>
<path d="M22.0617 50.9608C16.9736 48.6892 13.9972 44.0639 15.4138 40.63C16.8305 37.196 22.1036 36.2536 27.1918 38.5252C32.28 40.7968 35.2563 45.422 33.8397 48.856C32.4231 52.29 27.1499 53.2323 22.0617 50.9608Z" fill="#B2DBD3"/>
<path d="M22.5289 50.7834C18.9993 49.2074 17.2355 45.2701 18.5892 41.9891C19.9429 38.7082 23.9016 37.3261 27.4311 38.902C30.9606 40.478 32.7245 44.4154 31.3708 47.6963C30.0171 50.9773 26.0584 52.3594 22.5289 50.7834Z" fill="#1B1B1B"/>
<path d="M27.5847 42.561C27.0116 42.561 26.547 42.0777 26.547 41.4815C26.547 40.8852 27.0116 40.4019 27.5847 40.4019C28.1578 40.4019 28.6224 40.8852 28.6224 41.4815C28.6224 42.0777 28.1578 42.561 27.5847 42.561Z" fill="white"/>
<path d="M29.8197 34.7283C31.0996 35.4808 32.5943 35.2493 33.1583 34.2112C33.7223 33.1731 33.142 31.7215 31.8621 30.969C30.5823 30.2165 29.0875 30.448 28.5235 31.4861C27.9595 32.5242 28.5398 33.9758 29.8197 34.7283Z" fill="white"/>
<path d="M60.0888 34.7283C58.8089 35.4808 57.3142 35.2493 56.7502 34.2112C56.1862 33.1731 56.7665 31.7215 58.0464 30.969C59.3262 30.2165 60.821 30.448 61.385 31.4861C61.949 32.5242 61.3687 33.9758 60.0888 34.7283Z" fill="white"/>
<path d="M50.5208 17.8739C50.5208 24.4642 47.9119 33.061 44.6937 33.061C41.4755 33.061 38.8666 24.4642 38.8666 17.8739C38.8666 11.2837 41.4755 10.2804 44.6937 10.2804C47.9119 10.2804 50.5208 11.2837 50.5208 17.8739Z" fill="#DADADA"/>
<path d="M57.8044 16.5814C57.8044 21.6292 55.6302 28.214 52.9487 28.214C50.2667 28.214 48.0925 21.6292 48.0925 16.5814C48.0925 11.5335 50.2667 10.7651 52.9487 10.7651C55.6302 10.7651 57.8044 11.5335 57.8044 16.5814Z" fill="#DADADA"/>
<path d="M41.7802 16.5814C41.7802 21.6292 39.6061 28.214 36.9243 28.214C34.2425 28.214 32.0685 21.6292 32.0685 16.5814C32.0685 11.5335 34.2425 10.7651 36.9243 10.7651C39.6061 10.7651 41.7802 11.5335 41.7802 16.5814Z" fill="#DADADA"/>
<path d="M44.9365 17.0661C51.5069 17.0661 56.8333 15.33 56.8333 13.1885C56.8333 11.047 51.5069 9.31097 44.9365 9.31097C38.3661 9.31097 33.0397 11.047 33.0397 13.1885C33.0397 15.33 38.3661 17.0661 44.9365 17.0661Z" fill="#DADADA"/>
</g>
<defs>
<clipPath id="clip0_96_777">
<rect width="88" height="76" fill="white" transform="translate(0.936096 0.242798)"/>
</clipPath>
</defs>
</svg>