<svg width="28" height="28" viewBox="0 0 28 28" fill="none" xmlns="http://www.w3.org/2000/svg">
<path d="M2.57705 12.9577L12.9577 2.57705C14.6122 0.926765 16.8536 0 19.1904 0C21.5273 0 23.7687 0.926765 25.4232 2.57705C28.8589 6.01278 28.8589 11.5922 25.4232 15.0426L15.0426 25.4232C11.5922 28.8589 6.01278 28.8589 2.57705 25.4232C0.926765 23.7687 0 21.5273 0 19.1904C0 16.8536 0.926765 14.6122 2.57705 12.9577V12.9577ZM4.66198 15.0426C3.92967 15.7683 3.40262 16.675 3.1344 17.6705C2.86619 18.6659 2.86639 19.7147 3.13499 20.7101L11.9299 11.9299L18.1553 18.1553L23.3383 12.9577C23.886 12.4147 24.3207 11.7685 24.6174 11.0566C24.9141 10.3447 25.0669 9.58108 25.0669 8.80982C25.0669 8.03855 24.9141 7.27492 24.6174 6.56301C24.3207 5.85109 23.886 5.20498 23.3383 4.66198C22.7953 4.11426 22.1492 3.67951 21.4372 3.38282C20.7253 3.08613 19.9617 2.93338 19.1904 2.93338C18.4192 2.93338 17.6555 3.08613 16.9436 3.38282C16.2317 3.67951 15.5856 4.11426 15.0426 4.66198L4.66198 15.0426V15.0426Z" fill="#003842"/>
</svg>